<svg width="23" height="21" viewBox="0 0 23 21" fill="none" xmlns="http://www.w3.org/2000/svg">
  <g clip-path="url(#clip0)">
    <path d="M10.5 21C16.299 21 21 16.299 21 10.5C21 4.70101 16.299 0 10.5 0C4.70101 0 0 4.70101 0 10.5C0 16.299 4.70101 21 10.5 21Z" fill="#FFCE00"/>
    <path d="M10.5 0C10.0358 0 9.57871 0.0305156 9.13041 0.0888809C14.2823 0.76002 18.2608 5.16522 18.2608 10.5C18.2608 15.8348 14.2822 20.24 9.13037 20.9111C9.57871 20.9695 10.0358 21 10.5 21C16.299 21 21 16.299 21 10.5C21 4.70105 16.299 0 10.5 0Z" fill="#EDBF00"/>
    <path d="M6.48212 16.4336C6.20633 16.3976 5.9629 16.2422 5.81426 16.0072C5.66558 15.7723 5.62936 15.4858 5.71496 15.2212L6.88374 11.6075C6.91036 11.5251 7.02816 11.5291 7.0492 11.613L7.28594 12.5571C7.44541 13.1932 7.71226 13.8452 8.05757 14.4429C8.4434 15.1106 8.90032 15.683 9.4156 16.144L10.0876 16.7454C10.1507 16.8019 10.103 16.9059 10.019 16.8949L6.48212 16.4336Z" fill="#ED8800"/>
    <path d="M13.6736 16.4579C13.2392 16.4579 12.8036 16.401 12.3787 16.2889C11.0688 15.9435 9.97418 15.1069 9.29643 13.9332C8.66167 12.8341 8.47214 11.5364 8.76286 10.2793C9.05276 9.02596 9.78838 7.94499 10.8344 7.23571L11.2425 6.95893C11.3512 6.88527 11.4954 6.97645 11.4754 7.10622L11.4003 7.59365C11.1969 8.91374 11.5993 10.5539 12.5042 12.0936C13.4092 13.6335 14.6466 14.783 15.8989 15.2475L16.3604 15.4186C16.4834 15.4642 16.493 15.6344 16.376 15.6936L15.9368 15.9158C15.2257 16.2755 14.4643 16.4579 13.6736 16.4579Z" fill="#ED8800"/>
    <path d="M17.3321 14.2163C17.1776 14.2163 17.0233 14.177 16.8859 14.1026C15.812 13.5212 14.801 12.4873 14.0393 11.1914C13.2776 9.89551 12.8662 8.5093 12.8807 7.28814C12.8837 7.03348 12.9865 6.79678 13.1699 6.62164C13.3408 6.45819 13.5637 6.36816 13.7974 6.36816C13.8087 6.36816 13.82 6.36833 13.8313 6.36882C15.5694 6.4271 17.1338 7.35664 18.0144 8.85515C18.8951 10.3536 18.9461 12.1724 18.1508 13.7206C18.0382 13.9399 17.8457 14.101 17.6088 14.1743C17.5187 14.2022 17.4256 14.2163 17.3321 14.2163Z" fill="#ED8800"/>
    <path d="M4.65476 9.26264C3.44349 9.26264 2.45801 8.2772 2.45801 7.06589C2.45801 5.85458 3.44345 4.86914 4.65476 4.86914C5.65501 4.86914 7.41602 6.5347 7.93195 7.04522L8.23046 7.34061L7.89652 7.59528C7.23895 8.09661 5.60678 9.26264 4.65476 9.26264Z" fill="white"/>
    <path d="M9.25728 5.96937C9.03206 5.49392 8.52338 4.32789 8.66234 3.77172C8.81751 3.15062 9.37307 2.7168 10.0133 2.7168C10.1267 2.7168 10.2403 2.73087 10.3509 2.75847C10.7112 2.84854 11.0152 3.07388 11.2067 3.39302C11.3982 3.71216 11.4542 4.08639 11.3641 4.44679C11.2253 5.0021 10.2277 5.79226 9.80525 6.10615L9.44788 6.37165L9.25728 5.96937Z" fill="white"/>
  </g>
  <circle cx="17.5" cy="15.5" r="5.5" fill="white"/>
  <path fill-rule="evenodd" clip-rule="evenodd" d="M14.7159 15.4659C15.4318 16.1023 16.3864 16.9773 16.3864 16.9773C16.3864 16.9773 18.6932 14.2727 20.8409 13L21 13.4773C20.2045 13.9545 17.8182 16.6591 16.9432 19.0455C16.9432 19.0455 14.4773 16.6591 14 16.1023L14.7159 15.4659Z" fill="#FFCE00"/>
  <defs>
    <clipPath id="clip0">
      <rect width="21" height="21" fill="white"/>
    </clipPath>
  </defs>
</svg>
