<svg width="20" height="20" viewBox="0 0 20 20" fill="none" xmlns="http://www.w3.org/2000/svg">
  <path fill-rule="evenodd" clip-rule="evenodd" d="M20 0.9375C20 0.419688 19.5803 0 19.0625 0C18.9453 0 18.8344 0.0240625 18.7309 0.063125L18.73 0.0609375L0.605 6.93594L0.605937 6.93844C0.2525 7.0725 0 7.41188 0 7.8125C0 8.25438 0.306563 8.6225 0.718125 8.72156L0.7175 8.72375L9.22313 10.7769L11.2762 19.2825L11.2784 19.2819C11.3778 19.6934 11.7456 20 12.1875 20C12.5881 20 12.9275 19.7475 13.0616 19.3941L13.0641 19.395L19.9391 1.27L19.9331 1.26781C19.9728 1.16438 20 1.055 20 0.9375ZM12.3869 15.8934L10.9113 9.78031L10.9091 9.78094C10.8269 9.44031 10.5594 9.17437 10.2194 9.09188L10.22 9.08875L4.10687 7.61312L17.4472 2.55281L12.3869 15.8934Z" fill="black"/>
</svg>
