<svg width="23" height="21" viewBox="0 0 23 21" fill="none" xmlns="http://www.w3.org/2000/svg">
  <circle cx="10.5" cy="10.5" r="10.5" fill="#226ACE"/>
  <circle cx="10.8281" cy="10.8281" r="8.20312" fill="white"/>
  <path d="M10.8281 2.625C6.29765 2.625 2.625 6.29765 2.625 10.8281C2.625 15.3586 6.29765 19.0312 10.8281 19.0312C15.3586 19.0312 19.0312 15.3586 19.0312 10.8281C19.0312 6.29765 15.3586 2.625 10.8281 2.625ZM13.9576 6.80251L12.8231 6.80301C11.9333 6.80301 11.7613 7.2258 11.7613 7.84613V9.21402H13.883L13.882 11.3565H11.7615V16.8545H9.54852V11.3565H7.6986V9.21402H9.54852V7.63398C9.54852 5.80034 10.6688 4.8017 12.3044 4.8017L13.9578 4.80422L13.9576 6.80251Z" fill="#226ACE"/>
  <circle cx="17.5" cy="15.5" r="5.5" fill="white"/>
  <path fill-rule="evenodd" clip-rule="evenodd" d="M14.7159 15.4659C15.4318 16.1023 16.3864 16.9773 16.3864 16.9773C16.3864 16.9773 18.6932 14.2727 20.8409 13L21 13.4773C20.2045 13.9545 17.8182 16.6591 16.9432 19.0455C16.9432 19.0455 14.4773 16.6591 14 16.1023L14.7159 15.4659Z" fill="#226ACE"/>
</svg>
